<svg width="835" height="282" viewBox="0 0 835 282" fill="none" xmlns="http://www.w3.org/2000/svg">
<g clip-path="url(#clip0_160_142)">
<path d="M240.702 41.298C214.067 14.6698 178.658 0 140.997 0C103.336 0 67.9262 14.6698 41.298 41.298C14.6698 67.9262 0 103.336 0 140.997C0 178.658 14.6698 214.067 41.298 240.696C67.9262 267.324 103.336 281.994 140.997 281.994C178.658 281.994 214.067 267.324 240.696 240.696C267.324 214.067 281.994 178.658 281.994 140.997C281.994 103.336 267.324 67.9262 240.696 41.298H240.702ZM113.437 136.156C111.068 132.604 110.92 128.1 113.061 124.405C115.197 120.71 119.17 118.594 123.422 118.872L123.758 118.892C126.922 118.963 129.893 117.183 131.303 114.317C133.193 110.492 137.017 108.111 141.281 108.111H141.294H141.307C145.526 108.111 149.312 110.486 151.176 114.317C152.573 117.183 155.505 118.963 158.637 118.892L158.973 118.872C163.173 118.594 167.107 120.71 169.217 124.405C171.333 128.1 171.184 132.604 168.842 136.156C168.408 136.81 168.091 137.509 167.864 138.234H167.787C166.771 140.738 167.023 143.585 168.557 145.876C170.925 149.428 171.074 153.932 168.932 157.627C166.797 161.322 162.823 163.438 158.572 163.16L158.236 163.141C155.071 163.069 152.101 164.849 150.69 167.716C148.801 171.54 144.976 173.921 140.712 173.921H140.699H140.686C136.467 173.921 132.682 171.546 130.818 167.716C129.42 164.849 126.489 163.069 123.357 163.141L123.02 163.16C118.821 163.438 114.886 161.322 112.777 157.627C110.661 153.932 110.81 149.428 113.152 145.876C113.586 145.222 113.903 144.523 114.129 143.799H114.207C115.223 141.294 114.97 138.447 113.437 136.156ZM163.335 257.229C157.478 258.355 152.03 253.922 152.03 247.963V247.827C152.03 243.258 155.304 239.388 159.789 238.528C199.527 230.886 230.911 199.488 238.534 159.75C239.647 153.939 235.156 148.561 229.242 148.561H225.424C220.959 148.561 217.057 151.68 216.177 156.055C210.696 183.466 190.552 205.649 164.299 214.041C158.229 215.983 152.036 211.388 152.036 205.014V199.902C152.036 197.249 153.589 194.881 155.971 193.716C155.984 193.716 155.997 193.703 156.01 193.697C163.639 189.956 171.385 185.485 178.399 180.774C187.252 174.821 192.978 164.914 193.703 154.269C193.936 150.839 194.065 147.325 194.111 143.799C194.111 143.799 194.001 132.106 193.71 127.77C192.991 117.125 187.329 107.218 178.574 101.265C171.631 96.5474 163.975 92.0824 156.43 88.3422C151.693 85.9932 146.491 84.822 141.294 84.822C136.04 84.822 130.786 85.9932 125.991 88.3422C118.361 92.0824 110.615 96.5539 103.601 101.265C94.7485 107.218 89.0216 117.125 88.2969 127.77C88.0639 131.2 87.8892 138.24 87.8892 138.24C87.8892 138.26 87.8892 138.279 87.8892 138.298C87.8763 139.204 87.9992 149.94 88.2904 154.275C89.0087 164.92 94.6708 174.827 103.426 180.781C110.369 185.498 118.025 189.963 125.57 193.703C125.583 193.703 125.596 193.716 125.609 193.723C127.899 194.855 129.388 197.146 129.388 199.702V204.84C129.388 211.24 123.143 215.847 117.067 213.847C91.1247 205.299 71.2587 183.259 65.8231 156.068C64.9495 151.687 61.0475 148.568 56.576 148.568H52.7581C46.8436 148.568 42.3527 153.945 43.4658 159.75C51.0562 199.346 82.24 230.653 121.758 238.444C126.191 239.317 129.388 243.193 129.388 247.71V247.859C129.388 253.838 123.907 258.277 118.044 257.119C63.7329 246.403 22.655 198.414 22.655 141.01C22.655 83.6054 63.733 35.61 118.038 24.8875C123.907 23.7292 129.381 28.1683 129.381 34.1475V34.2899C129.381 38.8196 126.159 42.6892 121.713 43.5628C85.0096 50.8103 55.5148 78.3445 45.4265 113.954C43.7246 119.953 48.3061 125.9 54.5441 125.9H58.4526C62.6458 125.9 66.3149 123.13 67.5185 119.112C76.9597 87.4686 106.325 64.3283 141.003 64.3283C175.681 64.3283 205.047 87.4686 214.482 119.112C215.679 123.13 219.348 125.9 223.547 125.9H227.456C233.694 125.9 238.269 119.953 236.574 113.948C226.433 78.1698 196.706 50.545 159.763 43.4593C155.291 42.5986 152.043 38.7225 152.043 34.1734V34.031C152.043 28.0648 157.491 23.6386 163.348 24.7645C217.963 35.2411 259.358 83.366 259.358 140.99C259.358 198.615 217.963 246.746 163.348 257.216L163.335 257.229Z" fill="#3D7A00"/>
</g>
<path d="M458.76 110.411C462.216 110.411 465.018 113.213 465.018 116.669V172.27C465.018 176.597 466.06 180.403 468.096 183.813C470.197 187.332 472.978 190.114 476.495 192.215C479.991 194.267 483.805 195.3 488.047 195.3C492.374 195.3 496.135 194.258 499.464 192.24L499.48 192.23L499.495 192.221C503.017 190.119 505.8 187.335 507.903 183.813C509.939 180.403 510.982 176.597 510.982 172.27V116.669C510.982 113.213 513.783 110.411 517.239 110.411H528.878C532.224 110.411 534.957 113.037 535.127 116.34L535.136 116.662L535.23 210.792C535.233 214.25 532.431 217.055 528.973 217.055H517.328C514.009 217.055 511.291 214.47 511.084 211.198C509.369 212.45 507.545 213.589 505.615 214.61L505.615 214.609C499.432 217.916 492.681 219.549 485.457 219.549C477.317 219.549 469.781 217.555 462.969 213.527C456.245 209.55 450.864 204.169 446.887 197.445C442.858 190.633 440.865 183.096 440.865 174.956V116.669C440.865 113.213 443.666 110.411 447.121 110.411H458.76ZM652.269 62.4508C655.724 62.4509 658.526 65.2528 658.526 68.7086V210.797C658.525 214.253 655.724 217.055 652.269 217.055H640.63C637.174 217.055 634.372 214.253 634.372 210.797V209.01C632.679 210.498 630.867 211.871 628.936 213.123L628.929 213.127L628.923 213.13C622.172 217.481 614.284 219.549 605.491 219.549C597.83 219.549 590.58 218.104 583.799 215.177C577.119 212.295 571.19 208.308 566.044 203.233L565.991 203.18C560.916 198.034 556.93 192.105 554.047 185.425C551.12 178.644 549.675 171.394 549.675 163.733C549.675 156.072 551.12 148.822 554.047 142.041C556.93 135.296 560.922 129.355 566.018 124.259C571.166 119.111 577.104 115.083 583.799 112.193C590.581 109.266 597.83 107.821 605.491 107.821C614.277 107.821 622.157 109.918 628.901 114.321L629.409 114.649C631.164 115.799 632.818 117.049 634.372 118.398V68.7086C634.372 65.2528 637.174 62.4508 640.63 62.4508H652.269ZM380.465 72.0426C387.719 72.0426 394.452 73.5371 400.563 76.6149L401.149 76.9069C407.167 79.9727 411.99 84.4434 415.54 90.2389H415.539C419.355 96.2986 421.126 103.458 421.126 111.457C421.126 116.208 420.269 120.781 418.542 125.135C416.866 129.362 414.629 133.094 411.783 136.248L411.739 136.297C411.565 136.484 411.388 136.668 411.21 136.85C412.164 137.511 413.08 138.229 413.954 139.006H413.953C417.305 141.922 420.053 145.386 422.194 149.361H422.195C424.279 153.171 425.794 157.202 426.736 161.44H426.737C427.722 165.593 428.224 169.717 428.224 173.804C428.224 182.159 426.375 189.738 422.506 196.362C418.794 202.827 413.756 207.95 407.428 211.629L407.387 211.652C401.029 215.274 393.999 217.055 386.412 217.055H335.99C332.535 217.055 329.733 214.253 329.733 210.797V78.3004C329.733 74.8447 332.535 72.0426 335.99 72.0426H380.465ZM743.25 72.0426C745.798 72.0426 748.083 73.5863 749.041 75.9293L749.129 76.1588L797.397 208.656C798.883 212.737 795.861 217.055 791.518 217.055H779.131C776.5 217.055 774.149 215.408 773.25 212.935L764.291 188.279H706.868L697.909 212.935C697.01 215.408 694.66 217.055 692.029 217.055H679.641C675.299 217.055 672.278 212.741 673.761 208.66L721.933 76.1617C722.832 73.6887 725.183 72.0426 727.814 72.0426H743.25ZM828.212 72.0426C831.668 72.0428 834.469 74.8447 834.469 78.3004V210.797C834.469 214.253 831.668 217.055 828.212 217.055H816.573C813.118 217.055 810.316 214.253 810.316 210.797V78.3004C810.316 74.8446 813.118 72.0426 816.573 72.0426H828.212ZM485.457 214.187C485.656 214.187 485.854 214.185 486.051 214.182C485.854 214.185 485.656 214.186 485.457 214.186C485.232 214.186 485.007 214.185 484.782 214.181L485.457 214.187ZM604.839 214.183L605.491 214.187V214.186C605.225 214.186 604.96 214.183 604.695 214.179C604.743 214.18 604.791 214.183 604.839 214.183ZM494.035 213.254C494.061 213.248 494.087 213.244 494.113 213.238C494.297 213.196 494.482 213.153 494.665 213.108L494.666 213.107C494.457 213.158 494.246 213.206 494.035 213.254ZM791.739 211.665C791.668 211.682 791.595 211.693 791.518 211.693L791.631 211.686C791.668 211.682 791.704 211.673 791.739 211.665ZM692.167 211.682L692.284 211.656C692.289 211.655 692.293 211.651 692.297 211.65C692.255 211.663 692.212 211.675 692.167 211.682ZM585.924 210.255C586.206 210.376 586.489 210.494 586.773 210.61C586.489 210.494 586.206 210.375 585.924 210.254V210.255ZM335.099 210.883C335.1 210.895 335.102 210.906 335.104 210.918C335.098 210.878 335.095 210.838 335.095 210.797L335.099 210.883ZM639.739 210.883C639.74 210.895 639.742 210.906 639.743 210.918C639.738 210.878 639.735 210.838 639.735 210.797L639.739 210.883ZM815.682 210.883C815.683 210.895 815.685 210.906 815.687 210.918C815.681 210.878 815.678 210.838 815.678 210.797L815.682 210.883ZM503.107 209.87C502.551 210.167 501.99 210.448 501.424 210.714C501.477 210.69 501.53 210.667 501.582 210.642C501.753 210.561 501.924 210.478 502.094 210.393C502.434 210.225 502.771 210.05 503.107 209.871C503.357 209.738 503.605 209.603 503.851 209.465L503.107 209.87ZM678.769 210.594C678.76 210.633 678.754 210.671 678.75 210.71C678.758 210.637 678.774 210.564 678.8 210.492L678.769 210.594ZM792.371 210.536C792.389 210.593 792.402 210.651 792.407 210.708C792.404 210.672 792.399 210.637 792.391 210.601C792.386 210.579 792.378 210.558 792.371 210.536ZM624.624 209.471C624.843 209.345 625.06 209.215 625.277 209.085C625.06 209.215 624.843 209.345 624.624 209.471ZM626.018 208.624C625.798 208.765 625.577 208.902 625.354 209.038C625.394 209.013 625.436 208.99 625.476 208.965L626.019 208.624C626.059 208.598 626.097 208.57 626.137 208.544C626.097 208.57 626.058 208.598 626.018 208.624ZM626.833 208.081C626.926 208.018 627.017 207.954 627.109 207.89C627.017 207.954 626.926 208.018 626.833 208.081ZM627.56 207.572C627.636 207.518 627.714 207.466 627.789 207.412C627.842 207.374 627.892 207.334 627.945 207.296C627.817 207.389 627.689 207.48 627.56 207.572ZM628.644 206.776C628.595 206.813 628.545 206.849 628.496 206.886C628.545 206.849 628.595 206.813 628.644 206.776ZM631.8 204.104L631.863 204.047C631.914 203.999 631.964 203.95 632.015 203.901C631.944 203.969 631.872 204.037 631.8 204.104ZM632.359 203.569C632.445 203.485 632.53 203.401 632.615 203.316C632.53 203.401 632.445 203.485 632.359 203.569ZM632.874 203.056C632.992 202.937 633.109 202.817 633.226 202.696C633.109 202.817 632.992 202.937 632.874 203.056ZM572.545 201.93C572.822 202.167 573.1 202.4 573.381 202.63C573.1 202.4 572.821 202.167 572.545 201.93ZM633.44 202.472C633.523 202.384 633.607 202.296 633.69 202.207C633.607 202.296 633.523 202.384 633.44 202.472ZM633.981 201.89C634.103 201.756 634.224 201.621 634.345 201.485C634.224 201.621 634.103 201.756 633.981 201.89ZM571.659 201.154C571.912 201.381 572.167 201.605 572.424 201.826C572.167 201.605 571.912 201.381 571.659 201.154ZM634.435 201.382C634.587 201.21 634.737 201.036 634.886 200.861C634.737 201.036 634.587 201.21 634.435 201.382ZM570.715 200.287C570.996 200.551 571.279 200.813 571.566 201.071C571.279 200.813 570.996 200.551 570.715 200.287ZM634.952 200.783C635.097 200.612 635.24 200.44 635.382 200.266C635.24 200.44 635.097 200.612 634.952 200.783ZM487.563 200.658L488.047 200.662C487.85 200.662 487.653 200.659 487.457 200.655C487.492 200.656 487.528 200.657 487.563 200.658ZM486.851 200.636C486.954 200.64 487.056 200.644 487.159 200.647C487.056 200.644 486.954 200.64 486.851 200.636ZM489.139 200.641C489.224 200.638 489.309 200.635 489.394 200.631C489.309 200.635 489.224 200.638 489.139 200.641ZM486.098 200.597C486.232 200.606 486.367 200.614 486.502 200.621C486.367 200.614 486.232 200.606 486.098 200.597ZM490.162 200.589C490.037 200.597 489.911 200.605 489.784 200.612C489.911 200.605 490.037 200.597 490.162 200.589ZM485.281 200.536C485.499 200.556 485.718 200.572 485.937 200.588C485.718 200.572 485.499 200.556 485.281 200.536ZM490.619 200.554C490.674 200.55 490.728 200.546 490.782 200.541C490.728 200.546 490.674 200.55 490.619 200.554ZM491.451 200.473C491.432 200.476 491.412 200.478 491.392 200.48C491.412 200.478 491.432 200.476 491.451 200.473ZM491.994 200.406C492.077 200.395 492.159 200.384 492.24 200.373C492.159 200.384 492.077 200.395 491.994 200.406ZM492.814 200.288C492.749 200.298 492.683 200.306 492.618 200.316C492.683 200.306 492.749 200.298 492.814 200.288ZM569.809 199.416C570.089 199.692 570.372 199.963 570.657 200.232C570.372 199.963 570.089 199.691 569.809 199.415C569.521 199.123 569.237 198.829 568.957 198.532L569.809 199.416ZM493.399 200.184C493.475 200.17 493.552 200.155 493.628 200.14C493.552 200.155 493.475 200.17 493.399 200.184ZM638.022 196.668C637.988 196.704 637.957 196.745 637.928 196.789C637.539 197.384 637.137 197.966 636.721 198.536L637.334 197.672C637.535 197.381 637.733 197.087 637.928 196.79C637.957 196.746 637.988 196.705 638.022 196.668ZM638.136 196.563C638.106 196.587 638.077 196.612 638.049 196.64C638.077 196.612 638.106 196.587 638.136 196.563ZM638.723 196.36C638.525 196.363 638.329 196.421 638.162 196.543C638.201 196.514 638.242 196.489 638.283 196.467C638.421 196.397 638.571 196.363 638.723 196.361V196.36ZM566.541 195.782C566.572 195.819 566.604 195.855 566.634 195.892C566.529 195.764 566.425 195.635 566.321 195.505C566.395 195.597 566.467 195.691 566.541 195.782ZM605.587 131.59C599.751 131.59 594.552 133.035 589.865 135.891L589.825 135.915C585.052 138.768 581.249 142.618 578.372 147.542C575.55 152.372 574.116 157.73 574.116 163.733C574.117 169.788 575.575 175.161 578.442 179.977C581.381 184.851 585.224 188.685 590.013 191.548C594.802 194.374 599.96 195.78 605.587 195.78C611.521 195.78 616.318 194.352 620.225 191.717C624.301 188.904 627.451 185.138 629.685 180.29L629.706 180.245C632.026 175.33 633.222 169.854 633.222 163.733C633.222 157.395 632.016 151.869 629.716 147.05L629.706 147.029C627.407 142.156 624.217 138.413 620.14 135.66C616.223 133.015 611.451 131.59 605.587 131.59ZM565.622 194.623C565.724 194.755 565.827 194.886 565.93 195.017C565.827 194.886 565.724 194.755 565.622 194.623ZM353.886 194.34H385.357C389.038 194.34 392.244 193.399 395.115 191.55L395.132 191.539L395.15 191.528C398.157 189.623 400.569 187.011 402.394 183.57L402.408 183.543L402.423 183.514C404.252 180.161 405.222 176.296 405.222 171.791C405.222 167.972 404.303 164.42 402.44 161.055L402.416 161.012L402.394 160.969C400.557 157.506 398.113 154.798 395.044 152.752L395.001 152.723L394.958 152.693C392.099 150.706 388.949 149.719 385.357 149.719H353.886V194.34ZM564.934 193.711C565.037 193.851 565.142 193.99 565.247 194.13C565.142 193.99 565.037 193.851 564.934 193.711ZM564.31 192.848C564.378 192.945 564.449 193.041 564.518 193.137C564.449 193.041 564.378 192.945 564.31 192.848ZM450.302 192.527C450.324 192.571 450.348 192.615 450.37 192.659C450.336 192.591 450.3 192.523 450.266 192.455L450.302 192.527ZM561.649 188.668C561.672 188.708 561.695 188.749 561.718 188.79C562.326 189.846 562.968 190.878 563.646 191.885C563.663 191.911 563.68 191.935 563.698 191.961C562.975 190.891 562.292 189.793 561.649 188.668ZM560.72 186.969C560.826 187.172 560.934 187.373 561.042 187.574C560.934 187.373 560.826 187.172 560.72 186.969ZM560.292 186.135C560.398 186.347 560.506 186.557 560.615 186.766C560.506 186.557 560.398 186.347 560.292 186.135ZM559.999 185.546C560.051 185.651 560.104 185.756 560.156 185.861C560.074 185.696 559.993 185.53 559.913 185.364C559.942 185.424 559.97 185.485 559.999 185.546ZM559.473 184.431C559.505 184.5 559.539 184.568 559.571 184.637C559.52 184.528 559.468 184.419 559.418 184.309C559.437 184.35 559.454 184.391 559.473 184.431ZM633.903 183.874C633.951 183.778 634.002 183.683 634.05 183.587L634.058 183.57C634.007 183.672 633.954 183.772 633.903 183.874ZM459.659 172.772C459.664 173.032 459.672 173.29 459.683 173.547C459.672 173.29 459.664 173.032 459.659 172.772ZM708.407 168.396C708.402 168.42 708.399 168.444 708.396 168.468C708.4 168.442 708.403 168.416 708.409 168.389L708.407 168.396ZM568.774 165.032C568.777 165.129 568.782 165.227 568.785 165.324C568.781 165.22 568.777 165.116 568.774 165.011V165.032ZM715.662 164.126H755.402L735.531 109.572L715.662 164.126ZM559.795 142.335C560.728 140.355 561.769 138.46 562.918 136.648C562.505 137.3 562.104 137.961 561.718 138.634C561.032 139.833 560.392 141.067 559.795 142.335ZM403.069 136.458C402.938 136.563 402.836 136.701 402.764 136.858C402.835 136.705 402.934 136.569 403.061 136.464C403.063 136.462 403.066 136.46 403.069 136.458ZM563.29 136.07C563.205 136.2 563.121 136.33 563.037 136.461C563.121 136.33 563.205 136.2 563.29 136.07ZM563.646 135.532C563.617 135.574 563.59 135.617 563.562 135.66C563.609 135.59 563.655 135.519 563.702 135.449C563.684 135.477 563.664 135.504 563.646 135.532ZM564.37 134.485C564.351 134.513 564.33 134.54 564.311 134.568C564.33 134.54 564.351 134.513 564.37 134.485ZM586.557 131.627C586.056 131.936 585.564 132.255 585.082 132.585C585.564 132.256 586.056 131.937 586.557 131.628V131.627ZM392.725 129.059C392.786 129.022 392.848 128.987 392.908 128.95L392.979 128.906C392.895 128.958 392.81 129.008 392.725 129.059ZM353.886 127.197H379.314C384.538 127.197 388.713 125.722 392.139 122.933C395.225 120.409 396.973 116.807 396.973 111.361C396.973 105.079 395.103 101.36 392.203 99.0729L392.139 99.0201C388.713 96.2309 384.538 94.7575 379.314 94.7574H353.886V127.197ZM627.866 120.091C627.793 120.039 627.718 119.987 627.644 119.934C627.718 119.987 627.793 120.039 627.866 120.091ZM627.117 119.569C627.049 119.523 626.983 119.474 626.914 119.428C626.867 119.396 626.818 119.366 626.77 119.334C626.886 119.411 627.002 119.49 627.117 119.569ZM625.213 118.331C625.484 118.497 625.752 118.668 626.018 118.842C626.067 118.874 626.115 118.906 626.163 118.937C626.115 118.906 626.067 118.873 626.019 118.842C625.753 118.668 625.484 118.497 625.213 118.331ZM415.729 112.982C415.718 113.227 415.703 113.472 415.687 113.715C415.72 113.22 415.744 112.722 415.755 112.221L415.729 112.982ZM413.891 99.1813C413.823 98.9823 413.752 98.785 413.681 98.5885C413.752 98.785 413.823 98.9823 413.891 99.1813ZM413.563 98.2701C413.541 98.2116 413.52 98.1527 413.497 98.0944C413.483 98.0574 413.468 98.0209 413.453 97.984C413.49 98.0791 413.527 98.1745 413.563 98.2701ZM413.259 97.4996C413.222 97.4077 413.185 97.3156 413.147 97.2242C413.185 97.3155 413.221 97.4078 413.259 97.4996ZM412.657 96.1276C412.734 96.2899 412.81 96.4526 412.883 96.6168C412.867 96.5815 412.853 96.5456 412.837 96.5104C412.779 96.3818 412.717 96.255 412.657 96.1276ZM412.51 95.816C412.465 95.7231 412.418 95.631 412.372 95.5387C412.418 95.631 412.465 95.7231 412.51 95.816ZM412.152 95.1022C412.095 94.9925 412.036 94.8838 411.978 94.775C412.036 94.8838 412.095 94.9925 412.152 95.1022ZM395.102 94.526C395.244 94.6365 395.385 94.7489 395.525 94.8629V94.8619C395.385 94.748 395.244 94.6362 395.102 94.526ZM411.789 94.4293C411.733 94.327 411.675 94.2251 411.617 94.1237C411.675 94.2251 411.733 94.327 411.789 94.4293ZM349.327 89.399C349.299 89.402 349.27 89.4062 349.242 89.4117C349.27 89.4064 349.299 89.4029 349.327 89.4L349.419 89.3951L349.327 89.399ZM561.202 187.871C561.33 188.103 561.459 188.333 561.59 188.563C561.459 188.333 561.33 188.103 561.202 187.871ZM459.659 172.76C459.658 172.654 459.657 172.548 459.656 172.441C459.657 172.552 459.658 172.662 459.659 172.772C459.659 172.768 459.659 172.764 459.659 172.76Z" fill="#3D7A00"/>
<defs>
<clipPath id="clip0_160_142">
<rect width="282" height="282" fill="white"/>
</clipPath>
</defs>
</svg>
